<svg width="46" height="46" viewBox="0 0 46 46" fill="none" xmlns="http://www.w3.org/2000/svg">
<g clip-path="url(#clip0_24317_531)">
<path d="M46 23C46 10.2975 35.7025 0 23 0C10.2975 0 0 10.2975 0 23C0 35.7025 10.2975 46 23 46C35.7025 46 46 35.7025 46 23Z" fill="white"/>
<mask id="mask0_24317_531" style="mask-type:luminance" maskUnits="userSpaceOnUse" x="15" y="15" width="16" height="16">
<path d="M30.0711 22.9998L23 15.9287L15.9289 22.9998L23 30.0708L30.0711 22.9998Z" fill="white"/>
</mask>
<g mask="url(#mask0_24317_531)">
<g opacity="0.7">
<path d="M30.0703 22.9995L23.7441 29.3267L22.3301 27.9116L26.2422 23.9995H17.3428V21.9995H26.2422L22.3301 18.0874L23.7441 16.6733L30.0703 22.9995Z" fill="#316DC2"/>
</g>
</g>
</g>
<defs>
<clipPath id="clip0_24317_531">
<rect width="46" height="46" fill="white"/>
</clipPath>
</defs>
</svg>
