<svg width="134" height="54" viewBox="0 0 134 54" fill="none" xmlns="http://www.w3.org/2000/svg">
<rect x="0.5" y="0.5" width="133" height="53" rx="26.5" fill="white"/>
<rect x="0.5" y="0.5" width="133" height="53" rx="26.5" stroke="#316DC2"/>
<path d="M21.2455 32V21.92H22.3795L26.1875 29.949L29.9745 21.92H31.1225V31.993H29.9395V24.657L26.5165 32H25.8515L22.4285 24.657V32H21.2455ZM33.3654 32V21.92H39.7354V23.103H34.6114V26.26H38.8954V27.443H34.6114V30.817H39.7354V32H33.3654ZM41.6981 32V21.92H42.9441V26.365H48.2501V21.92H49.4961V32H48.2501V27.548H42.9441V32H41.6981ZM51.7398 32V21.92H52.9858V26.337H55.4638V27.583H52.9858V32H51.7398ZM59.2088 32.21C58.5415 32.21 57.9512 32.077 57.4378 31.811C56.9245 31.545 56.4952 31.174 56.1498 30.698C55.8045 30.222 55.5432 29.6643 55.3658 29.025C55.1885 28.3857 55.0998 27.6973 55.0998 26.96C55.0998 26.2133 55.1885 25.5227 55.3658 24.888C55.5432 24.2533 55.8045 23.698 56.1498 23.222C56.4952 22.746 56.9245 22.3773 57.4378 22.116C57.9512 21.85 58.5415 21.717 59.2088 21.717C59.8808 21.717 60.4712 21.85 60.9798 22.116C61.4932 22.3773 61.9225 22.746 62.2678 23.222C62.6132 23.698 62.8745 24.2533 63.0518 24.888C63.2292 25.5227 63.3178 26.2133 63.3178 26.96C63.3178 27.716 63.2292 28.4137 63.0518 29.053C62.8745 29.6923 62.6132 30.25 62.2678 30.726C61.9225 31.1973 61.4932 31.5637 60.9798 31.825C60.4712 32.0817 59.8808 32.21 59.2088 32.21ZM59.2088 31.02C59.6755 31.02 60.0815 30.915 60.4268 30.705C60.7768 30.495 61.0662 30.2057 61.2948 29.837C61.5282 29.4637 61.7032 29.032 61.8198 28.542C61.9365 28.0473 61.9948 27.52 61.9948 26.96C61.9995 26.3953 61.9435 25.868 61.8268 25.378C61.7148 24.888 61.5422 24.4587 61.3088 24.09C61.0802 23.7167 60.7885 23.4273 60.4338 23.222C60.0838 23.012 59.6755 22.907 59.2088 22.907C58.7422 22.907 58.3338 23.012 57.9838 23.222C57.6385 23.4273 57.3515 23.7167 57.1228 24.09C56.8942 24.4587 56.7215 24.888 56.6048 25.378C56.4882 25.868 56.4275 26.3953 56.4228 26.96C56.4228 27.52 56.4788 28.0473 56.5908 28.542C56.7075 29.032 56.8802 29.4637 57.1088 29.837C57.3422 30.2057 57.6338 30.495 57.9838 30.705C58.3338 30.915 58.7422 31.02 59.2088 31.02Z" fill="#316DC2"/>
<rect x="84" y="4" width="46" height="46" rx="23" fill="#316DC2"/>
<path d="M98 23H116M98 27H116M98 31H116" stroke="white" stroke-linecap="round"/>
</svg>
